<svg width="44" height="44" viewBox="0 0 44 44" fill="none" xmlns="http://www.w3.org/2000/svg">
<path d="M32.2641 37.098V14.6666H2.93213V37.098C2.93213 38.051 3.58871 38.8235 4.39873 38.8235H30.7975C31.6075 38.8235 32.2641 38.051 32.2641 37.098Z" fill="#289BC3"/>
<path d="M11.7339 33.647H8.80067C6.3707 33.647 4.40088 35.9646 4.40088 38.8235C4.40088 41.6824 6.3707 44 8.80067 44H11.7339C14.1638 44 16.1336 41.6824 16.1336 38.8235C16.1336 35.9646 14.1638 33.647 11.7339 33.647Z" fill="#32283C"/>
<path d="M38.1308 33.647H35.1976C32.7677 33.647 30.7979 35.9646 30.7979 38.8235C30.7979 41.6824 32.7677 44 35.1976 44H38.1308C40.5608 44 42.5306 41.6824 42.5306 38.8235C42.5306 35.9646 40.5608 33.647 38.1308 33.647Z" fill="#32283C"/>
<path d="M35.1976 44C37.6276 44 39.5974 41.6824 39.5974 38.8235C39.5974 35.9646 37.6276 33.647 35.1976 33.647C32.7677 33.647 30.7979 35.9646 30.7979 38.8235C30.7979 41.6824 32.7677 44 35.1976 44Z" fill="#555A6E"/>
<path d="M35.1966 40.5491C36.0066 40.5491 36.6632 39.7765 36.6632 38.8236C36.6632 37.8706 36.0066 37.0981 35.1966 37.0981C34.3866 37.0981 33.73 37.8706 33.73 38.8236C33.73 39.7765 34.3866 40.5491 35.1966 40.5491Z" fill="#E6E6EB"/>
<path d="M26.3999 33.647H23.4667C21.0367 33.647 19.0669 35.9646 19.0669 38.8235C19.0669 41.6824 21.0367 44 23.4667 44H26.3999C28.8298 44 30.7997 41.6824 30.7997 38.8235C30.7997 35.9646 28.8298 33.647 26.3999 33.647Z" fill="#32283C"/>
<path d="M41.0666 16.3922H19.0677C18.2577 16.3922 17.6011 17.1646 17.6011 18.1176V19.8431H41.0666C41.8766 19.8431 42.5332 19.0707 42.5332 18.1176C42.5332 17.1646 41.8766 16.3922 41.0666 16.3922Z" fill="#A5C3DC"/>
<path d="M26.4007 16.3922H19.0677C18.2577 16.3922 17.6011 17.1646 17.6011 18.1176V19.8431H26.4007C27.2107 19.8431 27.8672 19.0707 27.8672 18.1176C27.8672 17.1646 27.2107 16.3922 26.4007 16.3922Z" fill="#D7E6F0"/>
<path d="M17.6011 19.8431H41.0666V28.4706H17.6011V19.8431Z" fill="#463C4B"/>
<path d="M17.6011 19.8431H26.4007V28.4706H17.6011V19.8431Z" fill="#555A6E"/>
<path d="M42.5332 38.8235H19.0677C18.2577 38.8235 17.6011 38.0511 17.6011 37.098V28.4706H41.0666C42.6866 28.4706 43.9998 30.0157 43.9998 31.9216V37.098C43.9998 38.0511 43.3432 38.8235 42.5332 38.8235Z" fill="#A5C3DC"/>
<path d="M27.8672 38.8235H19.0677C18.2577 38.8235 17.6011 38.0511 17.6011 37.098V28.4706H26.4007C28.0206 28.4706 29.3338 30.0157 29.3338 31.9216V37.098C29.3338 38.0511 28.6773 38.8235 27.8672 38.8235Z" fill="#D7E6F0"/>
<path d="M32.8757 31.9216H40.4531C41.6005 31.9216 42.5307 33.016 42.5307 34.3661C42.5307 35.716 41.6005 36.8105 40.453 36.8105H32.8756C31.7281 36.8105 30.7979 35.7161 30.7979 34.3661C30.7979 33.016 31.7281 31.9216 32.8757 31.9216V31.9216Z" fill="#555A6E"/>
<path d="M32.8788 35.6602C33.4862 35.6602 33.9787 35.0808 33.9787 34.3661C33.9787 33.6514 33.4862 33.072 32.8788 33.072C32.2713 33.072 31.7788 33.6514 31.7788 34.3661C31.7788 35.0808 32.2713 35.6602 32.8788 35.6602Z" fill="#00D2D2"/>
<path d="M40.451 35.6602C41.0585 35.6602 41.551 35.0808 41.551 34.3661C41.551 33.6514 41.0585 33.072 40.451 33.072C39.8435 33.072 39.3511 33.6514 39.3511 34.3661C39.3511 35.0808 39.8435 35.6602 40.451 35.6602Z" fill="#00D2D2"/>
<path d="M13.9324 0H9.53261C9.12765 0 8.79932 0.386295 8.79932 0.862746C8.79932 1.3392 9.12765 1.72549 9.53261 1.72549C12.363 1.72549 14.6657 4.43473 14.6657 7.76472C14.6657 8.24117 14.994 8.62746 15.399 8.62746H19.7988C20.2038 8.62746 20.5321 8.24117 20.5321 7.76472C20.5321 3.48323 17.5715 0 13.9324 0Z" fill="#A5C3DC"/>
<path d="M25.665 0H21.2652C17.6261 0 14.6655 3.48323 14.6655 7.76472C14.6655 8.24117 14.9939 8.62746 15.3988 8.62746H19.7986C20.2036 8.62746 20.5319 8.24117 20.5319 7.76472C20.5319 4.43473 22.8347 1.72549 25.665 1.72549C26.07 1.72549 26.3983 1.3392 26.3983 0.862746C26.3983 0.386295 26.07 0 25.665 0Z" fill="#A5C3DC"/>
<path d="M28.5984 0H24.1986C23.7937 0 23.4653 0.386295 23.4653 0.862746C23.4653 1.3392 23.7937 1.72549 24.1986 1.72549C25.4117 1.72549 26.3985 2.88653 26.3985 4.31373C26.3985 5.74093 25.4117 6.90197 24.1986 6.90197C23.7937 6.90197 23.4653 7.28827 23.4653 7.76472C23.4653 8.24117 23.7937 8.62746 24.1986 8.62746H28.5984C30.6201 8.62746 32.2649 6.69232 32.2649 4.31373C32.2649 1.93514 30.6201 0 28.5984 0Z" fill="#A5C3DC"/>
<path d="M10.9984 6.90197C9.78535 6.90197 8.79851 5.74093 8.79851 4.31373C8.79851 2.88653 9.78535 1.72549 10.9984 1.72549C11.4034 1.72549 11.7317 1.3392 11.7317 0.862746C11.7317 0.386295 11.4034 0 10.9984 0H6.59862C4.57692 0 2.93213 1.93514 2.93213 4.31373C2.93213 6.69232 4.57692 8.62746 6.59862 8.62746H10.9984C11.4034 8.62746 11.7317 8.24117 11.7317 7.76472C11.7317 7.28827 11.4034 6.90197 10.9984 6.90197Z" fill="#A5C3DC"/>
<path d="M33.7317 8.62744H1.4666C0.656577 8.62744 0 9.39992 0 10.3529V12.9412C0 13.8942 0.656577 14.6667 1.4666 14.6667H33.7317C34.5417 14.6667 35.1983 13.8942 35.1983 12.9412V10.3529C35.1983 9.39992 34.5417 8.62744 33.7317 8.62744Z" fill="#289BC3"/>
<path d="M16.1315 38.8235H4.39873C3.58871 38.8235 2.93213 38.051 2.93213 37.098V19.8431H17.5981V37.098C17.5981 38.051 16.9415 38.8235 16.1315 38.8235Z" fill="#00D2D2"/>
<path d="M17.5992 8.62744H1.4666C0.656577 8.62744 0 9.39992 0 10.3529V12.9412C0 13.8942 0.656577 14.6667 1.4666 14.6667H17.5992C18.4092 14.6667 19.0657 13.8942 19.0657 12.9412V10.3529C19.0657 9.39992 18.4092 8.62744 17.5992 8.62744Z" fill="#00D2D2"/>
<path d="M10.264 12.9411C10.264 13.8941 10.9206 14.6666 11.7306 14.6666H7.33085C6.52083 14.6666 5.86426 13.8941 5.86426 12.9411V10.3529C5.86426 9.39986 6.52083 8.62738 7.33085 8.62738H11.7306C10.9206 8.62738 10.264 9.39986 10.264 10.3529V12.9411Z" fill="#D7E6F0"/>
<path d="M24.9353 12.9412C24.9353 13.8942 24.2788 14.6667 23.4688 14.6667H27.8685C28.6786 14.6667 29.3351 13.8942 29.3351 12.9412V10.3529C29.3351 9.39992 28.6786 8.62744 27.8685 8.62744H23.4688C24.2788 8.62744 24.9353 9.39992 24.9353 10.3529V12.9412Z" fill="#A5C3DC"/>
<path d="M24.2013 8.62746H14.6685V7.76472C14.6685 3.48323 17.6291 0 21.2681 0H24.2013C26.223 0 27.8678 1.93514 27.8678 4.31373C27.8678 6.69232 26.223 8.62746 24.2013 8.62746ZM16.1873 6.90197H24.2013C25.4144 6.90197 26.4012 5.74093 26.4012 4.31373C26.4012 2.88653 25.4144 1.72549 24.2013 1.72549H21.2681C18.6867 1.72549 16.5441 3.97909 16.1873 6.90197Z" fill="#D7E6F0"/>
<path d="M16.1315 8.62746H6.59862C4.57692 8.62746 2.93213 6.69232 2.93213 4.31373C2.93213 1.93514 4.57692 0 6.59862 0H9.53181C13.1709 0 16.1315 3.48323 16.1315 7.76472V8.62746ZM6.59862 1.72549C5.38556 1.72549 4.39873 2.88653 4.39873 4.31373C4.39873 5.74093 5.38556 6.90197 6.59862 6.90197H14.6126C14.2557 3.97909 12.1132 1.72549 9.53181 1.72549H6.59862Z" fill="#D7E6F0"/>
<path d="M23.4667 44C25.8966 44 27.8665 41.6824 27.8665 38.8235C27.8665 35.9646 25.8966 33.647 23.4667 33.647C21.0367 33.647 19.0669 35.9646 19.0669 38.8235C19.0669 41.6824 21.0367 44 23.4667 44Z" fill="#555A6E"/>
<path d="M23.4656 40.5491C24.2756 40.5491 24.9322 39.7765 24.9322 38.8236C24.9322 37.8706 24.2756 37.0981 23.4656 37.0981C22.6556 37.0981 21.999 37.8706 21.999 38.8236C21.999 39.7765 22.6556 40.5491 23.4656 40.5491Z" fill="#E6E6EB"/>
<path d="M8.80067 44C11.2306 44 13.2005 41.6824 13.2005 38.8235C13.2005 35.9646 11.2306 33.647 8.80067 33.647C6.37073 33.647 4.40088 35.9646 4.40088 38.8235C4.40088 41.6824 6.37073 44 8.80067 44Z" fill="#555A6E"/>
<path d="M8.79716 40.5491C9.60714 40.5491 10.2638 39.7765 10.2638 38.8236C10.2638 37.8706 9.60714 37.0981 8.79716 37.0981C7.98718 37.0981 7.33057 37.8706 7.33057 38.8236C7.33057 39.7765 7.98718 40.5491 8.79716 40.5491Z" fill="#E6E6EB"/>
</svg>
