<svg width="45" height="45" viewBox="0 0 45 45" fill="none" xmlns="http://www.w3.org/2000/svg">
<path d="M22.8006 20.4504L4.13477 23.0286L11.1403 43.9629C11.3433 44.53 12.0202 44.9426 12.7986 44.9426H33.1043C33.8826 44.9426 34.5596 44.53 34.7626 43.9629L41.7684 23.0286L22.8006 20.4504ZM19.5672 16.5833C20.5025 16.5833 21.2593 16.0067 21.2593 15.2942V2.23169C21.2593 1.51918 20.5025 0.942627 19.5672 0.942627C18.6318 0.942627 17.875 1.51918 17.875 2.23169V15.2942C17.875 16.0067 18.6318 16.5833 19.5672 16.5833ZM26.3357 16.5833C27.2711 16.5833 28.0279 16.0067 28.0279 15.2942V2.23169C28.0279 1.51918 27.2711 0.942627 26.3357 0.942627C25.4004 0.942627 24.6436 1.51918 24.6436 2.23169V15.2942C24.6436 16.0067 25.4004 16.5833 26.3357 16.5833Z" fill="url(#paint0_linear_1_151)"/>
<path d="M44.0057 16.7122C43.1935 16.4028 42.1781 16.6605 41.7385 17.305L39.6737 20.4504L34.5297 14.5722C34.1914 14.2113 33.6836 14.0051 33.1084 14.0051H12.8027C12.2273 14.0051 11.7197 14.2113 11.3812 14.5722L6.23712 20.4504L4.1727 17.305C3.73274 16.6605 2.71745 16.4028 1.90533 16.7122C1.05926 17.0473 0.720715 17.8208 1.12683 18.4394L4.13885 23.0286H41.7724L44.7841 18.4394C45.1906 17.8207 44.8518 17.0473 44.0057 16.7122V16.7122ZM22.9555 29.4739C20.1563 29.4739 17.8791 31.2086 17.8791 33.3411C17.8791 35.4735 20.1563 37.2082 22.9555 37.2082C25.7548 37.2082 28.032 35.4735 28.032 33.3411C28.032 31.2086 25.7548 29.4739 22.9555 29.4739Z" fill="url(#paint1_linear_1_151)"/>
<defs>
<linearGradient id="paint0_linear_1_151" x1="22.9516" y1="44.9426" x2="22.9516" y2="0.942627" gradientUnits="userSpaceOnUse">
<stop stop-color="#FD3A84"/>
<stop offset="1" stop-color="#FFA68D"/>
</linearGradient>
<linearGradient id="paint1_linear_1_151" x1="22.9555" y1="37.2082" x2="22.9555" y2="14.0051" gradientUnits="userSpaceOnUse">
<stop stop-color="#FFC2CC"/>
<stop offset="1" stop-color="#FFF2F4"/>
</linearGradient>
</defs>
</svg>
